<?xml version="1.0" encoding="UTF-8" standalone="no"?>
<svg
   xmlns:ooo="http://xml.openoffice.org/svg/export"
   xmlns:dc="http://purl.org/dc/elements/1.1/"
   xmlns:cc="http://creativecommons.org/ns#"
   xmlns:rdf="http://www.w3.org/1999/02/22-rdf-syntax-ns#"
   xmlns:svg="http://www.w3.org/2000/svg"
   xmlns="http://www.w3.org/2000/svg"
   xmlns:sodipodi="http://sodipodi.sourceforge.net/DTD/sodipodi-0.dtd"
   xmlns:inkscape="http://www.inkscape.org/namespaces/inkscape"
   version="1.2"
   width="95%"
   height="95%"
   viewBox="0 0 9099.9993 11600"
   preserveAspectRatio="xMidYMid"
   clip-path="url(#presentation_clip_path)"
   xml:space="preserve"
   id="svg2"
   inkscape:version="0.48.5 r10040"
   sodipodi:docname="space.svg"
   style="fill-rule:evenodd;stroke-width:28.22200012;stroke-linejoin:round"><metadata
     id="metadata143"><rdf:RDF><cc:Work
         rdf:about=""><dc:format>image/svg+xml</dc:format><dc:type
           rdf:resource="http://purl.org/dc/dcmitype/StillImage" /></cc:Work></rdf:RDF></metadata><sodipodi:namedview
     pagecolor="#ffffff"
     bordercolor="#666666"
     borderopacity="1"
     objecttolerance="10"
     gridtolerance="10"
     guidetolerance="10"
     inkscape:pageopacity="0"
     inkscape:pageshadow="2"
     inkscape:window-width="1600"
     inkscape:window-height="840"
     id="namedview141"
     showgrid="false"
     fit-margin-top="0"
     fit-margin-right="0"
     fit-margin-bottom="0"
     fit-margin-left="0"
     units="mm"
     inkscape:zoom="0.15857393"
     inkscape:cx="3145.5304"
     inkscape:cy="2896.886"
     inkscape:window-x="0"
     inkscape:window-y="27"
     inkscape:window-maximized="1"
     inkscape:current-layer="svg2" /><defs
     class="ClipPathGroup"
     id="defs4"><clipPath
       id="presentation_clip_path"
       clipPathUnits="userSpaceOnUse"><rect
         x="0"
         y="0"
         width="21000"
         height="29700"
         id="rect7" /></clipPath></defs><defs
     class="TextShapeIndex"
     id="defs9"><g
       ooo:slide="id1"
       ooo:id-list="id3 id4 id5 id6 id7 id8 id9 id10 id11 id12 id13 id14 id15 id16 id17 id18 id19"
       id="g11" /></defs><defs
     class="EmbeddedBulletChars"
     id="defs13"><g
       id="bullet-char-template(57356)"
       transform="scale(4.8828125e-4,-4.8828125e-4)"><path
         d="M 580,1141 1163,571 580,0 -4,571 580,1141 z"
         id="path16"
         inkscape:connector-curvature="0" /></g><g
       id="bullet-char-template(57354)"
       transform="scale(4.8828125e-4,-4.8828125e-4)"><path
         d="m 8,1128 1129,0 L 1137,0 8,0 8,1128 z"
         id="path19"
         inkscape:connector-curvature="0" /></g><g
       id="bullet-char-template(10146)"
       transform="scale(4.8828125e-4,-4.8828125e-4)"><path
         d="M 174,0 602,739 174,1481 1456,739 174,0 z m 1184,739 -1049,607 350,-607 699,0 z"
         id="path22"
         inkscape:connector-curvature="0" /></g><g
       id="bullet-char-template(10132)"
       transform="scale(4.8828125e-4,-4.8828125e-4)"><path
         d="M 2015,739 1276,0 717,0 l 543,543 -1086,0 0,393 1086,0 -543,545 557,0 741,-742 z"
         id="path25"
         inkscape:connector-curvature="0" /></g><g
       id="bullet-char-template(10007)"
       transform="scale(4.8828125e-4,-4.8828125e-4)"><path
         d="m 0,-2 c -7,16 -16,29 -25,39 l 381,530 c -94,256 -141,385 -141,387 0,25 13,38 40,38 9,0 21,-2 34,-5 21,4 42,12 65,25 l 27,-13 111,-251 280,301 64,-25 24,25 c 21,-10 41,-24 62,-43 C 886,937 835,863 770,784 769,783 710,716 594,584 L 774,223 c 0,-27 -21,-55 -63,-84 l 16,-20 C 717,90 699,76 672,76 641,76 570,178 457,381 L 164,-76 c -22,-34 -53,-51 -92,-51 -42,0 -63,17 -64,51 -7,9 -10,24 -10,44 0,9 1,19 2,30 z"
         id="path28"
         inkscape:connector-curvature="0" /></g><g
       id="bullet-char-template(10004)"
       transform="scale(4.8828125e-4,-4.8828125e-4)"><path
         d="M 285,-33 C 182,-33 111,30 74,156 52,228 41,333 41,471 c 0,78 14,145 41,201 34,71 87,106 158,106 53,0 88,-31 106,-94 l 23,-176 c 8,-64 28,-97 59,-98 l 735,706 c 11,11 33,17 66,17 42,0 63,-15 63,-46 l 0,-122 c 0,-36 -10,-64 -30,-84 L 442,47 C 390,-6 338,-33 285,-33 z"
         id="path31"
         inkscape:connector-curvature="0" /></g><g
       id="bullet-char-template(9679)"
       transform="scale(4.8828125e-4,-4.8828125e-4)"><path
         d="M 813,0 C 632,0 489,54 383,161 276,268 223,411 223,592 c 0,181 53,324 160,431 106,107 249,161 430,161 179,0 323,-54 432,-161 108,-107 162,-251 162,-431 0,-180 -54,-324 -162,-431 C 1136,54 992,0 813,0 z"
         id="path34"
         inkscape:connector-curvature="0" /></g><g
       id="bullet-char-template(8226)"
       transform="scale(4.8828125e-4,-4.8828125e-4)"><path
         d="m 346,457 c -73,0 -137,26 -191,78 -54,51 -81,114 -81,188 0,73 27,136 81,188 54,52 118,78 191,78 73,0 134,-26 185,-79 51,-51 77,-114 77,-187 0,-75 -25,-137 -76,-188 -50,-52 -112,-78 -186,-78 z"
         id="path37"
         inkscape:connector-curvature="0" /></g><g
       id="bullet-char-template(8211)"
       transform="scale(4.8828125e-4,-4.8828125e-4)"><path
         d="m -4,459 1139,0 0,147 -1139,0 0,-147 z"
         id="path40"
         inkscape:connector-curvature="0" /></g></defs><defs
     class="TextEmbeddedBitmaps"
     id="defs42" /><g
     id="g44"
     transform="translate(-5500.0002,-8800)"><g
       id="id2"
       class="Master_Slide"><g
         id="bg-id2"
         class="Background" /><g
         id="bo-id2"
         class="BackgroundObjects" /></g></g><g
     class="SlideGroup"
     id="g49"
     transform="translate(-5500.0002,-8800)"
     style="stroke:#000000;stroke-opacity:1"><g
       id="g51"
       style="stroke:#000000;stroke-opacity:1"><g
         id="id1"
         class="Slide"
         clip-path="url(#presentation_clip_path)"
         style="stroke:#000000;stroke-opacity:1"><g
           class="Page"
           id="g54"
           style="stroke:#000000;stroke-opacity:1"><g
             class="com.sun.star.drawing.CustomShape"
             id="g56"
             style="stroke:#000000;stroke-opacity:1"><g
               id="id3"
               style="stroke:#000000;stroke-opacity:1"><path
                 d="m 13850,20400 -750,0 0,-1200 1500,0 0,1200 -750,0 z"
                 id="path59"
                 inkscape:connector-curvature="0"
                 style="fill:#66ff00;stroke:#000000;stroke-opacity:1" /></g></g><g
             class="com.sun.star.drawing.CustomShape"
             id="g61"
             style="stroke:#000000;stroke-opacity:1"><g
               id="id4"
               style="stroke:#000000;stroke-opacity:1"><path
                 d="m 12350,20400 -750,0 0,-1200 1500,0 0,1200 -750,0 z"
                 id="path64"
                 inkscape:connector-curvature="0"
                 style="fill:#ff8080;stroke:#000000;stroke-opacity:1" /></g></g><g
             class="com.sun.star.drawing.CustomShape"
             id="g66"
             style="stroke:#000000;stroke-opacity:1"><g
               id="id5"
               style="stroke:#000000;stroke-opacity:1"><path
                 d="m 10850,20400 -750,0 0,-1700 1500,0 0,1700 -750,0 z"
                 id="path69"
                 inkscape:connector-curvature="0"
                 style="fill:#ff3333;stroke:#000000;stroke-opacity:1" /></g></g><g
             class="com.sun.star.drawing.CustomShape"
             id="g71"
             style="stroke:#000000;stroke-opacity:1"><g
               id="id6"
               style="stroke:#000000;stroke-opacity:1"><path
                 d="m 9350,20400 -750,0 0,-1700 1500,0 0,1700 -750,0 z"
                 id="path74"
                 inkscape:connector-curvature="0"
                 style="fill:#66cc00;stroke:#000000;stroke-opacity:1" /></g></g><g
             class="com.sun.star.drawing.CustomShape"
             id="g76"
             style="stroke:#000000;stroke-opacity:1"><g
               id="id7"
               style="stroke:#000000;stroke-opacity:1"><path
                 d="m 12000,19200 -400,0 0,-500 800,0 0,500 -400,0 z"
                 id="path79"
                 inkscape:connector-curvature="0"
                 style="fill:#00cc33;stroke:#000000;stroke-opacity:1" /></g></g><g
             class="com.sun.star.drawing.CustomShape"
             id="g81"
             style="stroke:#000000;stroke-opacity:1"><g
               id="id8"
               style="stroke:#000000;stroke-opacity:1"><path
                 d="m 10500,18700 -1900,0 0,-600 3800,0 0,600 -1900,0 z"
                 id="path84"
                 inkscape:connector-curvature="0"
                 style="fill:#ff3399;stroke:#000000;stroke-opacity:1" /></g></g><g
             class="com.sun.star.drawing.PolyPolygonShape"
             id="g86"
             style="stroke:#000000;stroke-opacity:1"><g
               id="id9"
               style="stroke:#000000;stroke-opacity:1"><path
                 d="m 5500,16900 0,-2300 3100,0 0,4100 -600,0 0,600 -400,0 0,-1200 -500,0 0,-1200 -1600,0 z"
                 id="path89"
                 inkscape:connector-curvature="0"
                 style="fill:#6699cc;stroke:#000000;stroke-opacity:1" /></g></g><g
             class="com.sun.star.drawing.CustomShape"
             id="g91"
             style="stroke:#000000;stroke-opacity:1"><g
               id="id10"
               style="stroke:#000000;stroke-opacity:1"><path
                 d="m 6300,18100 -800,0 0,-1200 1600,0 0,1200 -800,0 z"
                 id="path94"
                 inkscape:connector-curvature="0"
                 style="fill:#cc66ff;stroke:#000000;stroke-opacity:1" /></g></g><g
             class="com.sun.star.drawing.CustomShape"
             id="g96"
             style="stroke:#000000;stroke-opacity:1"><g
               id="id11"
               style="stroke:#000000;stroke-opacity:1"><path
                 d="m 8100,14600 -500,0 0,-1100 1000,0 0,1100 -500,0 z"
                 id="path99"
                 inkscape:connector-curvature="0"
                 style="fill:#aecf00;stroke:#000000;stroke-opacity:1" /></g></g><g
             class="com.sun.star.drawing.CustomShape"
             id="g101"
             style="stroke:#000000;stroke-opacity:1"><g
               id="id12"
               style="stroke:#000000;stroke-opacity:1"><path
                 d="m 8100,13500 -500,0 0,-1100 1000,0 0,1100 -500,0 z"
                 id="path104"
                 inkscape:connector-curvature="0"
                 style="fill:#729fcf;stroke:#000000;stroke-opacity:1" /></g></g><g
             class="com.sun.star.drawing.CustomShape"
             id="g106"
             style="stroke:#000000;stroke-opacity:1"><g
               id="id13"
               style="stroke:#000000;stroke-opacity:1"><path
                 d="m 8100,12400 -500,0 0,-1800 1000,0 0,1800 -500,0 z"
                 id="path109"
                 inkscape:connector-curvature="0"
                 style="fill:#ffd320;stroke:#000000;stroke-opacity:1" /></g></g><g
             class="com.sun.star.drawing.CustomShape"
             id="g111"
             style="stroke:#000000;stroke-opacity:1"><g
               id="id14"
               style="stroke:#000000;stroke-opacity:1"><path
                 d="m 8100,10600 -500,0 0,-1800 1000,0 0,1800 -500,0 z"
                 id="path114"
                 inkscape:connector-curvature="0"
                 style="fill:#ff420e;stroke:#000000;stroke-opacity:1" /></g></g><g
             class="com.sun.star.drawing.CustomShape"
             id="g116"
             style="stroke:#000000;stroke-opacity:1"><g
               id="id15"
               style="stroke:#000000;stroke-opacity:1"><path
                 d="m 6300,11100 -800,0 0,-1600 1600,0 0,1600 -800,0 z"
                 id="path119"
                 inkscape:connector-curvature="0"
                 style="fill:#cccccc;stroke:#000000;stroke-opacity:1" /></g></g><g
             class="com.sun.star.drawing.CustomShape"
             id="g121"
             style="stroke:#000000;stroke-opacity:1"><g
               id="id16"
               style="stroke:#000000;stroke-opacity:1"><path
                 d="m 6300,14600 -800,0 0,-3500 1600,0 0,3500 -800,0 z"
                 id="path124"
                 inkscape:connector-curvature="0"
                 style="fill:#14538b;stroke:#000000;stroke-opacity:1" /></g></g><g
             class="com.sun.star.drawing.CustomShape"
             id="g126"
             style="stroke:#000000;stroke-opacity:1"><g
               id="id17"
               style="stroke:#000000;stroke-opacity:1"><path
                 d="m 7350,14600 -250,0 0,-4700 500,0 0,4700 -250,0 z"
                 id="path129"
                 inkscape:connector-curvature="0"
                 style="fill:#cc0000;stroke:#000000;stroke-opacity:1" /></g></g><g
             class="com.sun.star.drawing.CustomShape"
             id="g131"
             style="stroke:#000000;stroke-opacity:1"><g
               id="id18"
               style="stroke:#000000;stroke-opacity:1"><path
                 d="m 6550,19300 -1050,0 0,-1200 2100,0 0,1200 -1050,0 z"
                 id="path134"
                 inkscape:connector-curvature="0"
                 style="fill:#669966;stroke:#000000;stroke-opacity:1" /></g></g><g
             class="com.sun.star.drawing.PolyPolygonShape"
             id="g136"
             style="stroke:#000000;stroke-opacity:1"><g
               id="id19"
               style="stroke:#000000;stroke-opacity:1"><path
                 d="m 5500,20400 0,-1100 2500,0 0,-600 600,0 0,1700 -3100,0 z"
                 id="path139"
                 inkscape:connector-curvature="0"
                 style="fill:#fcb201;stroke:#000000;stroke-opacity:1" /></g></g></g></g></g></g></svg>